<?xml version="1.0" encoding="UTF-8" standalone="no"?>
<!-- Created with Inkscape (http://www.inkscape.org/) -->

<svg
   xmlns:dc="http://purl.org/dc/elements/1.1/"
   xmlns:cc="http://creativecommons.org/ns#"
   xmlns:rdf="http://www.w3.org/1999/02/22-rdf-syntax-ns#"
   xmlns:svg="http://www.w3.org/2000/svg"
   xmlns="http://www.w3.org/2000/svg"
   xmlns:sodipodi="http://sodipodi.sourceforge.net/DTD/sodipodi-0.dtd"
   xmlns:inkscape="http://www.inkscape.org/namespaces/inkscape"
   width="744.09448819"
   height="1052.3622047"
   id="svg2"
   version="1.1"
   inkscape:version="0.48.5 r10040"
   sodipodi:docname="xtrm-logo.svg">
  <defs
     id="defs4" />
  <sodipodi:namedview
     id="base"
     pagecolor="#ffffff"
     bordercolor="#666666"
     borderopacity="1.0"
     inkscape:pageopacity="0.0"
     inkscape:pageshadow="2"
     inkscape:zoom="1.2902934"
     inkscape:cx="175.84979"
     inkscape:cy="575.79262"
     inkscape:document-units="px"
     inkscape:current-layer="layer1"
     showgrid="false"
     inkscape:window-width="1393"
     inkscape:window-height="856"
     inkscape:window-x="47"
     inkscape:window-y="0"
     inkscape:window-maximized="1" />
  <metadata
     id="metadata7">
    <rdf:RDF>
      <cc:Work
         rdf:about="">
        <dc:format>image/svg+xml</dc:format>
        <dc:type
           rdf:resource="http://purl.org/dc/dcmitype/StillImage" />
        <dc:title />
      </cc:Work>
    </rdf:RDF>
  </metadata>
  <g
     inkscape:label="Layer 1"
     inkscape:groupmode="layer"
     id="layer1">
    <path
       style="fill:#000000;fill-opacity:1;stroke:none"
       id="path4188"
       d="m 59.382114,58.594026 c 6.498331,0.205652 13.001643,0.216783 19.502739,0.219692 7.342348,-0.01221 14.684664,-0.03723 22.027007,-0.05036 4.99363,-0.03705 9.98743,-0.04486 14.98056,-0.129639 2.91936,-0.241363 5.45397,1.107606 8.0143,2.289543 3.35605,2.694407 4.37608,6.841557 5.19693,10.867671 0.81219,5.36711 1.72422,10.700612 2.2529,16.105992 0.42326,3.731018 0.57666,7.483577 0.57494,11.236208 -0.17924,3.584056 0.0927,7.099916 0.65193,10.633736 0.83475,4.60582 2.26003,9.06348 3.83411,13.46206 1.79053,4.90246 3.61171,9.7571 6.00065,14.404 1.8571,3.46008 4.02389,6.68137 7.01216,9.25313 3.31162,2.10946 6.89479,3.12253 10.74495,3.6197 5.28957,0.47615 10.61094,0.47253 15.91787,0.47787 5.40882,-0.0149 10.81818,-0.019 16.2264,-0.1094 3.62117,-0.0355 7.2424,-0.0296 10.86375,-0.0344 0.54221,0.1002 1.08442,0.2004 1.62663,0.30059 0,0 -19.48691,13.78407 -19.48691,13.78407 l 0,0 c -0.46876,-0.0286 -0.93752,-0.0573 -1.40628,-0.0859 -3.59671,-0.003 -7.19329,0.006 -10.7899,-0.0132 -5.34218,-0.0678 -10.68497,-0.0321 -16.02744,-0.05 -5.43412,-0.0248 -10.90011,0.10237 -16.297,-0.64307 -4.19199,-0.74667 -8.14938,-2.14244 -11.59966,-4.71696 -3.0607,-2.91498 -5.40284,-6.30277 -7.32142,-10.06994 -2.39902,-4.76256 -4.20056,-9.71485 -6.0831,-14.69473 -1.63917,-4.51013 -3.21004,-9.05394 -4.2642,-13.74197 -0.56889,-3.6465 -1.04693,-7.25005 -0.79999,-10.95613 -0.0545,-3.72056 -0.0504,-7.444 -0.30175,-11.15866 -0.42867,-5.331644 -1.31959,-10.585463 -2.13604,-15.867297 -0.65217,-3.18551 -1.33555,-6.979276 -4.38008,-8.766491 -2.33861,-1.091281 -4.685417,-1.719993 -7.301878,-1.519954 -4.874137,-0.08682 -9.749019,-0.09175 -14.623687,-0.129639 -7.296139,-0.01311 -14.592246,-0.03818 -21.888386,-0.05036 -6.70274,0.003 -13.407288,0.02047 -20.1075,0.219692 0,0 19.387395,-14.085766 19.387395,-14.085766 z"
       inkscape:connector-curvature="0" />
    <path
       style="fill:#000000;fill-opacity:1;stroke:none"
       id="path4190"
       d="m 59.208822,154.01671 c 3.59587,0.38436 7.088151,-0.2818 10.626129,-0.79478 3.662191,-0.92581 7.21861,-2.15678 10.904202,-2.97875 3.189625,-0.48601 6.341139,-1.31843 9.349554,-2.47092 2.780838,-1.11758 5.871285,-1.63364 8.444176,-3.2204 -35.924688,20.32139 -20.683462,12.36189 -13.130171,6.97858 2.883971,-1.60917 5.074858,-3.98513 7.240232,-6.42444 2.596874,-2.89161 5.21629,-5.76331 8.003236,-8.47351 2.62905,-2.46485 5.39338,-4.79253 7.84161,-7.44061 2.20575,-2.73987 4.67419,-5.25003 7.15429,-7.73851 2.50762,-2.61696 5.10456,-5.17575 7.40333,-7.98105 1.79414,-3.19575 3.98976,-5.97441 6.59306,-8.53399 2.4064,-2.44127 5.08593,-4.58787 7.60061,-6.915165 2.35963,-2.258499 4.77409,-4.460985 7.2856,-6.549837 1.97328,-1.232357 3.39563,-3.125368 5.29542,-4.423665 7.27943,-5.996795 16.01994,-9.249121 24.05379,-14.600142 6.25579,-4.166732 -13.00141,7.546756 -19.52736,11.276168 -0.3409,0.194812 0.64571,-0.446874 0.96857,-0.670312 7.13171,-4.130855 14.26342,-8.261711 21.39514,-12.392566 -6.52018,3.765985 -26.07372,15.076001 -19.56052,11.297954 7.17068,-4.159432 14.40976,-8.201937 21.533,-12.442112 6.44688,-3.837568 -12.98303,7.523457 -19.50375,11.234176 -0.65714,0.37396 1.24106,-0.864288 1.87202,-1.280906 6.5291,-19.292575 15.6886,-8.884242 24.25104,-13.510341 1.12829,-0.609589 1.92076,-1.26057 3.16521,-1.704258 2.59072,-0.824745 5.43145,-0.749386 8.13418,-0.785635 3.81735,-0.20147 7.70931,0.466711 11.47218,-0.309294 2.88541,-0.45037 5.6019,-1.435107 8.43279,-2.099428 2.78416,-0.352624 5.42953,-1.018533 8.12821,-1.784824 2.44175,-0.569473 4.9501,-0.62545 7.44439,-0.67567 2.59075,-0.04247 5.18126,-0.01038 7.77214,-0.0036 2.91624,-0.0039 5.83232,0.02278 8.74862,0.02902 2.75492,-0.01218 5.51043,-0.03934 8.26526,-0.01514 2.73671,-0.09452 5.33204,-1.022032 8.07825,-1.300046 3.05914,-0.241994 6.13051,-0.296619 9.19798,-0.331215 2.29113,-0.757897 4.54002,-1.308776 6.95432,-1.43559 3.13766,-0.154993 6.2798,-0.136862 9.42001,-0.177844 3.20507,-0.05767 6.33291,-0.968895 9.53266,-1.270454 2.88165,-0.267675 5.76926,-0.343193 8.66096,-0.343548 3.1039,-0.0075 6.20744,0.01017 9.31132,0.01932 3.09373,0.284477 5.95582,-0.164138 8.91623,-0.980006 3.00644,-0.475805 6.05558,-0.549939 9.0928,-0.612848 3.02136,-0.02883 6.04292,-0.05599 9.06444,-0.05207 2.87039,-0.312512 5.53129,0.35283 8.30144,0.940996 2.73972,1.000602 5.38359,2.2469 7.98189,3.575056 2.57466,1.081914 5.06037,2.524352 6.79847,4.745808 1.48447,1.472035 2.6489,3.19784 3.46756,5.115726 0.96657,2.968063 1.29947,6.089575 0.94375,9.184423 -0.45031,2.392024 -1.60027,4.55153 -2.97736,6.530606 -5.64378,6.940218 -16.8255,10.730818 -23.00835,14.209775 -0.3453,0.194289 -0.79584,0.08387 -1.16823,0.219173 -0.68778,0.249894 -1.29575,0.687091 -1.97677,0.954862 0.41113,-0.321856 -2.71813,1.248108 -2.06942,0.874071 64.72064,-37.31721 -47.99295,27.597828 14.85908,-8.516011 -48.54569,28.031819 -12.05444,6.951011 -3.32161,1.942457 0.49307,-0.28279 -0.97181,0.589868 -1.4579,0.884486 -1.67946,1.017911 -3.34687,2.036884 -4.98715,3.117253 -3.52974,2.627331 -7.14248,5.136283 -10.75866,7.641903 -2.56591,1.70993 -4.7852,3.86202 -7.1346,5.84674 -2.22843,1.6376 -4.66078,2.961 -6.83259,4.67578 -1.55813,1.25162 -2.10351,0.47417 -0.87149,1.91245 1.743,0.60787 3.17232,1.77754 4.72073,2.76893 2.19064,1.59838 4.47469,3.08214 6.71503,4.62854 2.11647,1.69497 3.86274,3.77745 5.84402,5.62652 2.37512,2.6052 4.10051,5.70241 7.12662,7.61296 2.18825,1.48025 4.35049,2.92748 6.23907,4.78745 1.5068,2.17781 3.73803,3.05198 6.00962,4.17959 2.84622,1.13702 5.63449,1.99814 8.33143,3.50964 2.23391,1.26195 4.70623,1.53521 7.21542,1.67487 2.65751,0.10441 5.17216,0.46081 7.52269,-0.93202 2.60975,-1.35321 5.11587,-2.77706 8.00958,-3.42696 8.34409,-3.51833 22.45695,-12.3928 -13.11184,8.01054 2.6341,-2.13353 5.04493,-4.55976 7.4286,-6.97097 1.88128,-2.24675 4.04976,-4.15725 6.31527,-5.9952 1.68486,-1.65668 3.36707,-3.2939 5.16059,-4.8333 2.36267,-2.36394 4.00023,-5.24294 5.54272,-8.17413 1.80963,-3.48149 3.50597,-6.99374 4.82364,-10.69122 1.39392,-4.52749 2.43883,-9.14163 3.05852,-13.83623 0.50595,-4.513192 0.5983,-9.061604 0.549,-13.598997 -0.008,-3.231757 -0.003,-6.462932 -0.0808,-9.694073 0.0694,-2.629282 0.91261,-5.106086 1.86578,-7.523832 0.66855,-2.254008 2.11458,-4.033603 3.46457,-5.889861 1.45204,-1.878329 3.1258,-3.603828 4.86284,-5.223534 1.68206,-1.381381 3.30261,-2.828651 5.12516,-4.023679 15.54588,-10.91827 15.62141,-12.120979 27.41971,-12.347991 2.635,0.01173 5.27045,0.0086 7.90525,0.0408 2.74206,0.197743 5.32979,-0.07391 7.99763,-0.612148 3.00955,-0.68643 6.1175,-0.790435 9.19051,-0.934411 2.83566,-0.129587 5.67657,-0.06734 8.51444,-0.05653 3.31026,0.01027 6.62055,0.01113 9.93082,0.01191 3.075,-0.04011 6.14973,0.01924 9.22484,-0.0079 2.9278,-0.01402 5.85565,-0.0035 8.78346,9.46e-4 2.73164,0.707529 5.48806,1.1834 8.29792,1.420546 3.02281,0.194349 6.05405,0.204114 9.08197,0.217803 3.2085,-0.09672 6.34829,-0.165533 9.28702,1.25931 2.61108,1.041174 4.42264,3.228187 6.47006,5.045839 1.80421,1.969964 2.96281,4.501549 3.93152,6.974916 1.01926,2.839891 1.10918,5.851226 1.20825,8.832653 0.0605,3.123025 0.0939,6.246439 0.0526,9.369794 0.2469,3.280928 -0.23688,6.480209 -0.7041,9.711866 -0.5519,3.457425 -0.7386,6.952147 -0.89212,10.444747 -0.12791,4.028087 -0.10646,8.060117 -0.0874,12.089967 0.0262,3.05311 0.0349,6.10686 0.0911,9.15958 0.15091,2.694 -0.6731,5.27154 -1.12223,7.89404 -0.45273,3.03168 -0.44892,6.1 -0.52432,9.15614 -0.007,0.5416 -0.0139,1.08319 -0.0208,1.62478 0,0 -21.25141,10.81229 -21.25141,10.81229 l 0,0 c -5e-4,-0.54317 -10e-4,-1.08633 -0.001,-1.62949 -0.002,-3.13908 0.10426,-6.28289 0.36069,-9.41183 0.2802,-2.56847 1.13346,-5.0099 1.21909,-7.5705 0.0513,-3.08081 0.053,-6.16259 0.0731,-9.24373 0.0147,-4.04716 0.0203,-8.09421 0.04,-12.14114 0.0415,-3.5785 0.2444,-7.15646 0.77396,-10.699423 0.46503,-3.123542 0.96767,-6.202641 0.7899,-9.373615 -0.0256,-3.101402 0.0467,-6.20259 -0.0128,-9.303929 -0.0705,-2.712867 -0.10964,-5.465252 -0.90888,-8.083622 -0.79549,-2.141319 -1.77838,-4.359607 -3.36597,-6.021138 -1.81276,-1.7131 -3.56119,-3.513427 -6.00091,-4.306348 -2.84478,-0.799501 -5.7736,-0.570916 -8.70067,-0.589268 -3.08799,-0.02227 -6.17992,-0.04935 -9.25388,-0.381971 -2.72993,-0.336134 -5.40061,-1.030638 -8.1409,-1.228233 -2.92876,0.0045 -5.85756,0.01515 -8.7863,9.27e-4 -3.0665,-0.02813 -6.13271,0.03228 -9.19906,-0.01272 -3.3113,-0.0039 -6.62261,-0.01209 -9.93391,-0.0062 -2.82399,0.01324 -5.64813,0.04438 -8.4694,0.175988 -3.0294,0.174003 -6.03663,0.538668 -9.00728,1.168249 -2.74263,0.427773 -5.50139,0.299617 -8.27061,0.279725 -2.6346,0.01328 -5.27012,-0.03845 -7.90399,0.05463 -9.65522,0.379654 -20.05854,8.891288 14.33923,-10.417353 -1.93455,1.025106 -3.70935,2.157738 -5.30034,3.680241 -1.89057,1.393405 -3.38251,3.110356 -5.10798,4.671919 -1.28304,1.782438 -2.74169,3.340623 -3.78222,5.284171 -0.73107,2.28857 -1.87568,4.370431 -2.22987,6.784576 -0.0582,3.263925 -0.0271,6.5277 -0.0572,9.791633 -0.11601,4.63377 -0.10412,9.275599 -0.52312,13.896045 -0.5688,4.822249 -1.59456,9.527807 -2.79488,14.230937 -1.20749,3.85579 -2.74082,7.48361 -4.6614,11.03938 -1.55884,2.96089 -2.83216,6.10162 -5.08358,8.63393 -1.4057,1.94113 -3.56133,3.18581 -5.14547,4.96876 -1.91318,2.2532 -4.73949,3.50788 -6.46514,5.9832 -2.33273,2.51114 -4.87753,4.77066 -7.19286,7.30222 -8.66846,5.13531 -17.91282,12.20559 -28.01378,15.42661 -2.70688,1.04444 -5.18455,2.57407 -7.91954,3.55163 -2.67918,0.5398 -5.42407,0.25763 -8.13506,0.0624 -2.75661,-0.32563 -5.38075,-1.02427 -7.7744,-2.48808 -2.64886,-1.41459 -5.60221,-1.9716 -8.23139,-3.43436 -2.51033,-1.19093 -4.80341,-2.55149 -6.55281,-4.76443 -1.77165,-1.76151 -3.93776,-3.02356 -5.91117,-4.53855 -2.86954,-2.24996 -4.75902,-5.29807 -7.3428,-7.84158 -1.91091,-1.76541 -3.54597,-3.83452 -5.6773,-5.34822 -2.19839,-1.57447 -4.4857,-3.02182 -6.72837,-4.53207 -1.70711,-1.15052 -3.64997,-1.94155 -5.17278,-3.33028 -1.35933,-1.69103 -2.79884,-3.68099 -0.73623,-5.47441 2.28878,-1.55735 4.34802,-3.4207 6.83089,-4.704 2.71436,-1.62481 4.75069,-4.10976 7.29381,-5.95867 3.63259,-2.48259 7.31521,-4.89621 10.76206,-7.63111 12.45672,-9.128205 52.31163,-29.851282 9.67325,-6.064401 7.32343,-4.243258 14.63595,-8.5054 21.97029,-12.729774 0.50658,-0.291776 2.05602,-1.113085 1.55134,-0.818027 -6.35252,3.713987 -25.60764,14.503341 -19.09621,11.075594 7.36983,-3.879621 14.4238,-8.332161 21.67331,-12.432227 0.6624,-0.374632 1.43418,-0.526004 2.10357,-0.887202 14.32945,-6.612405 -26.04881,15.877043 -14.6947,8.91434 1.47608,-1.645913 2.59215,-3.453091 3.54523,-5.44626 0.55281,-2.693294 0.50781,-5.32698 -0.36736,-7.974615 -0.73179,-1.713244 -1.93446,-3.146294 -3.16571,-4.528721 -1.59605,-1.890548 -3.93465,-2.896936 -6.14106,-3.905887 -2.51827,-1.137897 -4.95191,-2.527738 -7.6898,-3.075867 -2.65538,-0.554992 -5.29526,-0.66362 -8.00876,-0.541934 -2.98849,-5.56e-4 -5.97777,-0.03623 -8.96503,0.07584 -2.98554,0.128658 -5.99059,0.298393 -8.89691,1.049297 -3.03057,0.567331 -6.07153,0.531557 -9.14818,0.472555 -3.11159,0.002 -6.22325,5.1e-4 -9.33457,0.03813 -2.8293,0.07073 -5.66408,0.175562 -8.47413,0.53192 -3.22546,0.49252 -6.44815,1.164949 -9.72756,1.069441 -3.10138,-0.0019 -6.21436,0.03524 -9.29671,0.409329 -2.36417,0.427133 -4.66155,1.23262 -7.08713,1.232602 -3.0075,0.04814 -6.02442,0.102938 -9.00472,0.553772 -2.7495,0.480176 -5.4543,1.272596 -8.28164,1.044547 -2.74032,0.02341 -5.4813,-0.0023 -8.22167,-0.0181 -2.93445,0.003 -5.86874,0.0243 -8.80308,0.0078 -2.57984,-9.19e-4 -5.16084,0.0013 -7.73909,0.09942 -2.40571,0.140456 -4.80595,0.389497 -7.12114,1.101186 -2.68143,0.677459 -5.40801,1.041502 -8.08758,1.725547 -2.82578,0.799107 -5.67528,1.518018 -8.60575,1.818361 -3.86408,0.11607 -7.73447,-0.04132 -11.59791,0.165766 -2.62603,0.151494 -5.28485,0.319135 -7.65256,1.584807 -7.95693,4.426525 -22.70079,9.972982 13.71698,-8.345746 -7.73866,4.547277 -16.52313,9.235455 -23.38264,13.759195 -6.2611,4.129106 25.86233,-15.201288 19.45818,-11.297709 -3.52214,2.146887 -50.89933,29.576997 -1.83006,1.141644 -8.0739,4.38845 -5.15594,2.787889 -22.41561,13.125855 -6.44724,3.861681 12.95422,-7.622826 19.44859,-11.404713 0.31491,-0.183381 -0.6317,0.371092 -0.90845,0.608167 -1.81943,1.558604 0.30203,0.21395 -1.70944,1.373489 -1.82604,1.717805 0.26429,-0.09168 -1.75751,1.202752 -1.36288,0.872566 -2.04614,2.601449 -3.60079,3.290827 -2.65437,1.937791 -5.09087,4.127717 -7.46374,6.400409 -2.49187,2.317094 -4.96648,4.647053 -7.62584,6.774826 -2.41054,2.661836 -5.42541,4.753971 -6.76352,8.262341 -2.02582,3.10551 -4.7737,5.56081 -7.24003,8.30622 -2.45796,2.46369 -4.9424,4.90611 -7.25404,7.50974 -2.13963,3.02917 -5.08871,5.22722 -7.71453,7.81424 -2.98575,2.4132 -5.44686,5.39584 -8.0662,8.19084 -2.15993,2.44469 -4.11159,5.26278 -6.94311,6.95955 -9.156781,5.78255 -17.128707,12.8804 -27.821786,16.64018 -2.852565,1.00762 -5.707296,2.00083 -8.580068,2.94947 -3.101436,0.8844 -6.19463,1.71253 -9.37939,2.25558 -3.669949,0.99091 -7.292655,2.20679 -11.059585,2.79838 -3.667845,0.51244 -7.320921,0.72985 -11.026451,0.67027 0,0 19.427792,-14.11512 19.427792,-14.11512 z"
       inkscape:connector-curvature="0" />
    <path
       style="fill:#000000;fill-opacity:1;stroke:none"
       id="path4192"
       d="m 487.79496,48.425931 c -0.88984,3.384645 -1.16314,6.875404 -1.38934,10.35393 -0.16795,3.037758 -0.2288,6.081662 -0.19492,9.123687 -0.0141,3.17214 -0.0316,6.344418 -0.0313,9.51684 0.0213,3.249662 0.013,6.498541 0.008,9.74826 -0.004,3.223234 0.0181,6.44565 0.004,9.668733 -0.01,3.228889 0.0127,6.456989 -9e-4,9.685739 0.0103,3.24588 0.002,6.49104 -0.004,9.73697 0.0357,2.75732 0.0541,5.51118 0.0241,8.26851 -0.0111,3.17725 -0.048,6.35505 0.002,9.53207 0.003,0.45627 0.006,0.91254 0.009,1.36881 0,0 -21.30336,10.85461 -21.30336,10.85461 l 0,0 c 0.003,-0.45932 0.006,-0.91863 0.009,-1.37795 0.0489,-3.17759 0.0134,-6.35593 0.002,-9.53374 -0.0304,-2.7655 -0.0107,-5.52757 0.0241,-8.29308 -0.006,-3.24452 -0.0144,-6.48828 -0.004,-9.73276 -0.0136,-3.22846 0.009,-6.45628 -8.1e-4,-9.68488 -0.0139,-3.22439 0.008,-6.44812 0.004,-9.672651 -0.006,-3.250402 -0.0153,-6.500009 6.4e-4,-9.750372 -0.005,-3.16277 -0.0345,-6.32521 -0.0457,-9.487746 0.0516,-3.097659 0.006,-6.198365 0.19054,-9.292676 0.24318,-3.52741 0.54228,-7.064089 1.09487,-10.556759 0,0 21.60327,-10.475545 21.60327,-10.475545 z"
       inkscape:connector-curvature="0" />
    <path
       style="fill:#000000;fill-opacity:1;stroke:none"
       id="path4194"
       d="m 246.86538,64.388447 c -0.18016,4.332015 -0.17576,8.672408 -0.15876,13.008116 0.0428,3.781985 0.0629,7.563102 0.0689,11.345295 -0.001,3.006814 0.0464,6.0128 0.0412,9.019641 -0.31189,3.256521 -1.03588,6.437321 -1.33912,9.699411 -0.34464,4.04323 -0.30593,8.1046 -0.35683,12.15844 -0.22456,3.73629 -0.88251,7.42684 -1.24497,11.15031 -0.27773,3.08245 -0.27132,6.17777 -0.29554,9.26935 -0.009,2.90318 -0.0473,5.80675 -0.002,8.70973 0,0 -21.30209,10.8574 -21.30209,10.8574 l 0,0 c 0.037,-2.9089 -0.0153,-5.81795 -0.006,-8.72701 0.0184,-3.16211 0.11268,-6.32492 0.29465,-9.4819 0.28283,-3.69648 0.92329,-7.33598 1.40042,-11.01082 -0.0127,-4.10208 0.0839,-8.20366 0.24295,-12.30262 0.2197,-3.19625 0.49241,-6.36031 1.30974,-9.46963 -0.005,-3.02084 0.0424,-6.04085 0.0413,-9.061672 0.006,-3.805603 0.0264,-7.610154 0.0689,-11.415554 0.0167,-4.281704 0.0242,-8.568522 -0.15876,-12.846327 0,0 21.39669,-10.90216 21.39669,-10.90216 z"
       inkscape:connector-curvature="0" />
    <path
       style="fill:#000000;fill-opacity:1;stroke:none"
       id="path4200"
       d="m 65.886833,301.61186 c 15.122733,0.29227 29.825946,0.2691 44.192367,0.0503 2.25314,0.1313 4.58932,-0.31888 6.79578,0.20842 2.473,1.19662 2.47907,3.73637 2.61514,6.17304 -0.0191,4.36827 0.76706,8.67397 1.27623,12.99734 2.17395,15.96301 3.58248,46.04019 16.42019,57.21425 2.65114,2.20177 5.97237,3.15954 9.28219,3.86444 18.70255,1.59876 37.18465,1.01032 55.005,0.78183 2.18128,-0.008 1.10654,-0.003 3.22422,-0.0137 l -13.55568,9.84919 0,0 c -17.48051,-1.39797 -40.16835,2.00864 -58.35323,-1.14392 -3.55829,-0.87792 -7.03674,-2.02853 -9.84514,-4.48864 -2.41156,-2.17737 -4.65279,-4.63728 -5.67781,-7.78875 -7.63704,-15.92886 -9.2381,-33.8725 -11.09165,-50.60939 -0.57313,-4.31442 -1.46471,-8.60032 -1.56327,-12.96425 -0.10042,-1.44248 0.25109,-3.79843 -1.58262,-4.13438 -11.847367,-0.0853 -24.2214,-0.29818 -35.407751,-0.2149 -5.157352,0.0282 -10.316692,0.0119 -15.471489,0.20003 l 13.737523,-9.98089 z"
       inkscape:connector-curvature="0"
       sodipodi:nodetypes="ccccccccccccccccccccc"
       inkscape:export-filename="/Users/geza/path4361.png"
       inkscape:export-xdpi="207.18076"
       inkscape:export-ydpi="207.18076" />
    <path
       style="fill:#000000;fill-opacity:1;stroke:none"
       id="path4230"
       d="m 111.80053,348.57123 c 2.25099,-2.89115 8.77387,-7.51479 11.34145,-10.13709 16.08128,-14.57892 33.33571,-35.00553 53.26898,-35.38995 43.31232,-0.83527 96.97399,-1.09384 141.83586,-1.37066 14.90765,-0.25166 34.49943,0.57704 26.29237,19.41247 -21.55477,22.48634 -35.92728,47.54634 -63.75266,59.63518 l 0,0 c 0.54406,-0.84262 1.23228,-1.53283 1.69689,-2.42761 3.51515,-9.67916 22.48323,-30.63103 35.74153,-46.17886 10.36987,-12.16061 18.94896,-20.58978 2.6478,-20.54909 -47.91473,-0.12706 -101.95679,0.098 -141.34052,1.50068 -20.62462,0.73458 -35.67607,23.8139 -48.23299,38.91814 -25.04075,27.99827 -49.750778,37.52265 -79.532036,40.07935 43.130378,-25.14572 28.993292,-18.1778 60.033326,-43.49256 z"
       inkscape:connector-curvature="0"
       sodipodi:nodetypes="ccscccccscsccc"
       inkscape:export-filename="/Users/geza/path4361.png"
       inkscape:export-xdpi="207.18076"
       inkscape:export-ydpi="207.18076" />
    <path
       style="fill:#000000;fill-opacity:1;stroke:none"
       id="path4232"
       d="m 307.8512,357.94898 c 10.06426,11.69265 12.1876,12.82616 18.83728,19.18073 12.27578,11.731 19.13755,11.51257 26.25916,7.71935 7.49412,-3.99164 11.08685,-10.47426 10.82269,-20.09696 3.7089,-37.44176 2.8606,-27.76762 3.24251,-52.09574 0.55859,-16.22445 8.76332,-12.39851 98.21507,-13.31106 4.93918,0.0235 8.90825,0.34316 12.07649,0.61794 11.81337,1.02455 7.60809,24.37177 7.7479,40.58524 0.23217,26.92368 -0.0451,0.28989 0.10091,27.22891 -0.0205,0.30839 -1.68506,28.56582 -1.70546,28.87421 -12.34296,-13.84463 -13.45049,-18.84487 -12.10926,-47.92009 0.39775,-8.62261 -0.18156,-26.81172 0.16779,-38.52795 -77.72996,-0.42531 -8.56263,-0.68581 -88.81987,-0.55302 -5.01379,73.63455 3.42661,85.69505 -41.79281,85.38976 -28.82318,-1.90385 -45.11358,-34.27203 -59.98235,-49.92921 13.30675,-0.66537 12.97572,-1.46276 26.93995,12.83812 z"
       inkscape:connector-curvature="0"
       sodipodi:nodetypes="csscccssccscccccc"
       inkscape:export-filename="/Users/geza/path4361.png"
       inkscape:export-xdpi="207.18076"
       inkscape:export-ydpi="207.18076" />
    <path
       style="fill:#000000;fill-opacity:1;stroke:none"
       id="path4252"
       d="m 242.04473,308.77772 c -0.178,3.43591 -0.13234,6.87883 -0.1405,10.31813 0.0148,2.8624 0.0912,5.72448 0.0702,8.58701 0.0299,2.2176 0.0248,4.43547 0.0229,6.65322 0.007,2.20204 -0.0231,4.40436 0.0109,6.60621 -0.0182,2.1616 -0.015,4.3228 -0.002,6.48447 0.0417,1.72207 0.023,3.44425 0.003,5.16635 -0.019,2.24881 -0.0185,4.49773 -0.0191,6.74661 0.0386,2.15076 -0.0137,4.30153 0.0106,6.45224 0.0246,1.96826 0.0139,3.93547 -0.005,5.90361 -0.0334,2.29365 0.0163,4.58759 -0.002,6.88103 0.0261,2.0402 0.0123,4.08064 0.007,6.12093 l -15.04272,7.66465 0,0 c -0.006,-2.04259 -0.0193,-4.08534 0.007,-6.12784 -0.0182,-2.29284 0.0318,-4.58619 -0.002,-6.87923 -0.0191,-1.96643 -0.0294,-3.93193 -0.005,-5.89849 0.024,-2.15431 -0.0278,-4.30868 0.0106,-6.46304 -6.5e-4,-2.24239 -7e-5,-4.48482 -0.0191,-6.72714 -0.02,-1.7232 -0.0381,-3.44647 0.003,-5.16965 0.0132,-2.16108 0.0166,-4.3217 -0.002,-6.48271 0.0335,-2.20556 0.005,-4.41155 0.0109,-6.6173 -0.002,-2.22553 -0.007,-4.45118 0.0229,-6.67657 -0.0213,-2.88636 0.0559,-5.7723 0.0702,-8.65855 -0.008,-3.39152 0.04,-11.17116 -0.14051,-14.55911 l 15.12975,-3.32483 z"
       inkscape:connector-curvature="0"
       sodipodi:nodetypes="ccccccccccccccccccccccccccc"
       inkscape:export-filename="/Users/geza/path4361.png"
       inkscape:export-xdpi="207.18076"
       inkscape:export-ydpi="207.18076" />
    <path
       sodipodi:nodetypes="ccccccccccccccccccccccccccc"
       inkscape:connector-curvature="0"
       d="m 434.39966,308.77772 c -0.178,3.43591 -0.13234,6.87883 -0.1405,10.31813 0.0148,2.8624 0.0912,5.72448 0.0702,8.58701 0.0299,2.2176 0.0248,4.43547 0.0229,6.65322 0.007,2.20204 -0.0231,4.40436 0.0109,6.60621 -0.0182,2.1616 -0.015,4.3228 -0.002,6.48447 0.0417,1.72207 0.023,3.44425 0.003,5.16635 -0.019,2.24881 -0.0185,4.49773 -0.0191,6.74661 0.0386,2.15076 -0.0137,4.30153 0.0106,6.45224 0.0246,1.96826 0.0139,3.93547 -0.005,5.90361 -0.0334,2.29365 0.0163,4.58759 -0.002,6.88103 0.0261,2.0402 0.0123,4.08064 0.007,6.12093 l -15.04272,7.66465 0,0 c -0.006,-2.04259 -0.0193,-4.08534 0.007,-6.12784 -0.0182,-2.29284 0.0318,-4.58619 -0.002,-6.87923 -0.0191,-1.96643 -0.0294,-3.93193 -0.005,-5.89849 0.024,-2.15431 -0.0278,-4.30868 0.0106,-6.46304 -6.5e-4,-2.24239 -7e-5,-4.48482 -0.0191,-6.72714 -0.02,-1.7232 -0.0381,-3.44647 0.003,-5.16965 0.0132,-2.16108 0.0166,-4.3217 -0.002,-6.48271 0.0335,-2.20556 0.005,-4.41155 0.0109,-6.6173 -0.002,-2.22553 -0.007,-4.45118 0.0229,-6.67657 -0.0213,-2.88636 0.0559,-5.7723 0.0702,-8.65855 -0.008,-3.39152 0.04,-16.10334 -0.14051,-19.49129 l 15.12975,1.60735 z"
       id="path4361"
       style="fill:#000000;fill-opacity:1;stroke:none"
       inkscape:export-xdpi="207.18076"
       inkscape:export-ydpi="207.18076" />
    <path
       inkscape:export-ydpi="207.18076"
       inkscape:export-xdpi="207.18076"
       inkscape:export-filename="/Users/geza/path4390.png"
       sodipodi:nodetypes="ccccccccccccccccccccc"
       inkscape:connector-curvature="0"
       d="m 60.46171,480.6409 c 15.122733,0.29227 29.825946,0.2691 44.19237,0.0503 2.25314,0.1313 4.58932,-0.31888 6.79578,0.20842 2.473,1.19662 2.47907,3.73637 2.61514,6.17304 -0.0191,4.36827 0.76706,8.67397 1.27623,12.99734 2.17395,15.96301 3.58248,46.04019 16.42019,57.21425 2.65114,2.20177 5.97237,3.15954 9.28219,3.86444 18.70255,1.59876 37.18465,1.01032 55.005,0.78183 2.18128,-0.008 1.10654,-0.003 3.22422,-0.0137 l -13.55568,9.84919 0,0 c -17.48051,-1.39797 -40.16835,2.00864 -58.35323,-1.14392 -3.55829,-0.87792 -7.03674,-2.02853 -9.84514,-4.48864 -2.41156,-2.17737 -4.65279,-4.63728 -5.67781,-7.78875 -7.63704,-15.92886 -9.2381,-33.8725 -11.09165,-50.60939 -0.57313,-4.31442 -1.464713,-8.60032 -1.563273,-12.96425 -0.10042,-1.44248 0.25109,-3.79843 -1.58262,-4.13438 -11.847367,-0.0853 -24.2214,-0.29818 -35.407751,-0.2149 -5.157352,0.0282 -10.316692,0.0119 -15.471489,0.20003 l 13.737523,-9.98089 z"
       id="path4382"
       style="fill:#000000;fill-opacity:1;stroke:none" />
    <path
       inkscape:export-ydpi="207.18076"
       inkscape:export-xdpi="207.18076"
       inkscape:export-filename="/Users/geza/path4390.png"
       sodipodi:nodetypes="ccscccsccsccc"
       inkscape:connector-curvature="0"
       d="m 106.37541,527.60027 c 2.25099,-2.89115 8.77387,-7.51479 11.34145,-10.13709 16.08128,-14.57892 33.33571,-35.00553 53.26898,-35.38995 43.31232,-0.83527 96.97399,-1.09384 141.83586,-1.37066 14.90765,-0.25166 34.49943,0.57704 26.29237,19.41247 -24.54189,33.94934 -43.62482,51.43765 -73.82789,72.81048 -3.95505,-1.38256 4.48927,-14.53149 11.40958,-21.04508 14.6807,-13.81788 27.96561,-28.54351 33.77902,-35.31157 10.36987,-12.16061 21.27401,-26.0149 4.97285,-25.97421 -47.91473,-0.12706 -101.95679,0.098 -141.34052,1.50068 -20.62462,0.73458 -35.67607,23.8139 -48.23299,38.91814 -25.04075,27.99827 -49.750781,37.52265 -79.532039,40.07935 43.130378,-25.14572 28.993292,-18.1778 60.033329,-43.49256 z"
       id="path4384"
       style="fill:#000000;fill-opacity:1;stroke:none" />
    <path
       inkscape:export-ydpi="207.18076"
       inkscape:export-xdpi="207.18076"
       inkscape:export-filename="/Users/geza/path4390.png"
       sodipodi:nodetypes="cscccssccsccccc"
       inkscape:connector-curvature="0"
       d="m 308.08807,530.58317 c 12.27578,11.731 11.38737,28.56296 39.43445,33.29493 8.37255,1.41258 11.08685,-10.47426 10.82269,-20.09696 3.7089,-37.44176 2.8606,-27.76762 3.24251,-52.09574 0.55859,-16.22445 8.76332,-12.39851 98.21507,-13.31106 4.93918,0.0235 8.90825,0.34316 12.07649,0.61794 11.81337,1.02455 7.60809,24.37177 7.7479,40.58524 0.23217,26.92368 -0.0451,0.28989 0.10091,27.22891 -0.0205,0.30839 -1.68506,28.56582 -1.70546,28.87421 -12.34296,-13.84463 -13.45049,-18.84487 -12.10926,-47.92009 0.39775,-8.62261 -0.18156,-26.81172 0.16779,-38.52795 -77.72996,-0.42531 -8.56263,-0.68581 -88.81987,-0.55302 -5.01379,73.63455 3.42661,85.69505 -41.79281,85.38976 -28.82318,-9.65403 -23.41309,-17.99667 -38.28186,-33.65385 4.60322,-2.19411 7.66712,-12.83371 10.90145,-9.83232 z"
       id="path4386"
       style="fill:#000000;fill-opacity:1;stroke:none" />
    <path
       inkscape:export-ydpi="207.18076"
       inkscape:export-xdpi="207.18076"
       inkscape:export-filename="/Users/geza/path4390.png"
       sodipodi:nodetypes="ccccccccccccccccccccccccccc"
       inkscape:connector-curvature="0"
       d="m 236.61961,487.80676 c -0.178,3.43591 -0.13234,6.87883 -0.1405,10.31813 0.0148,2.8624 0.0912,5.72448 0.0702,8.58701 0.0299,2.2176 0.0248,4.43547 0.0229,6.65322 0.007,2.20204 -0.0231,4.40436 0.0109,6.60621 -0.0182,2.1616 -0.015,4.3228 -0.002,6.48447 0.0417,1.72207 0.023,3.44425 0.003,5.16635 -0.019,2.24881 -0.0185,4.49773 -0.0191,6.74661 0.0386,2.15076 -0.0137,4.30153 0.0106,6.45224 0.0246,1.96826 0.0139,3.93547 -0.005,5.90361 -0.0334,2.29365 0.0163,4.58759 -0.002,6.88103 0.0261,2.0402 0.0123,4.08064 0.007,6.12093 l -15.04272,7.66465 0,0 c -0.006,-2.04259 -0.0193,-4.08534 0.007,-6.12784 -0.0182,-2.29284 0.0318,-4.58619 -0.002,-6.87923 -0.0191,-1.96643 -0.0294,-3.93193 -0.005,-5.89849 0.024,-2.15431 -0.0278,-4.30868 0.0106,-6.46304 -6.5e-4,-2.24239 -7e-5,-4.48482 -0.0191,-6.72714 -0.02,-1.7232 -0.0381,-3.44647 0.003,-5.16965 0.0132,-2.16108 0.0166,-4.3217 -0.002,-6.48271 0.0335,-2.20556 0.005,-4.41155 0.0109,-6.6173 -0.002,-2.22553 -0.007,-4.45118 0.0229,-6.67657 -0.0213,-2.88636 0.0559,-5.7723 0.0702,-8.65855 -0.008,-3.39152 0.04,-11.17116 -0.14051,-14.55911 l 15.12975,-3.32483 z"
       id="path4388"
       style="fill:#000000;fill-opacity:1;stroke:none" />
    <path
       inkscape:export-ydpi="207.18076"
       inkscape:export-xdpi="207.18076"
       style="fill:#000000;fill-opacity:1;stroke:none"
       id="path4390"
       d="m 428.97454,487.80676 c -0.178,3.43591 -0.13234,6.87883 -0.1405,10.31813 0.0148,2.8624 0.0912,5.72448 0.0702,8.58701 0.0299,2.2176 0.0248,4.43547 0.0229,6.65322 0.007,2.20204 -0.0231,4.40436 0.0109,6.60621 -0.0182,2.1616 -0.015,4.3228 -0.002,6.48447 0.0417,1.72207 0.023,3.44425 0.003,5.16635 -0.019,2.24881 -0.0185,4.49773 -0.0191,6.74661 0.0386,2.15076 -0.0137,4.30153 0.0106,6.45224 0.0246,1.96826 0.0139,3.93547 -0.005,5.90361 -0.0334,2.29365 0.0163,4.58759 -0.002,6.88103 0.0261,2.0402 0.0123,4.08064 0.007,6.12093 l -15.04272,7.66465 0,0 c -0.006,-2.04259 -0.0193,-4.08534 0.007,-6.12784 -0.0182,-2.29284 0.0318,-4.58619 -0.002,-6.87923 -0.0191,-1.96643 -0.0294,-3.93193 -0.005,-5.89849 0.024,-2.15431 -0.0278,-4.30868 0.0106,-6.46304 -6.5e-4,-2.24239 -7e-5,-4.48482 -0.0191,-6.72714 -0.02,-1.7232 -0.0381,-3.44647 0.003,-5.16965 0.0132,-2.16108 0.0166,-4.3217 -0.002,-6.48271 0.0335,-2.20556 0.005,-4.41155 0.0109,-6.6173 -0.002,-2.22553 -0.007,-4.45118 0.0229,-6.67657 -0.0213,-2.88636 0.0559,-5.7723 0.0702,-8.65855 -0.008,-3.39152 0.04,-16.10334 -0.14051,-19.49129 l 15.12975,1.60735 z"
       inkscape:connector-curvature="0"
       sodipodi:nodetypes="ccccccccccccccccccccccccccc" />
  </g>
</svg>
